<svg xmlns="http://www.w3.org/2000/svg" xmlns:xlink="http://www.w3.org/1999/xlink" width="500" zoomAndPan="magnify" viewBox="0 0 375 374.999991" height="500" preserveAspectRatio="xMidYMid meet" version="1.0"><defs><clipPath id="d3c46cae12"><path d="M 149 105.449219 L 286 105.449219 L 286 215 L 149 215 Z M 149 105.449219 " clip-rule="nonzero"/></clipPath><clipPath id="28bb63b797"><path d="M 90 105.449219 L 240 105.449219 L 240 269 L 90 269 Z M 90 105.449219 " clip-rule="nonzero"/></clipPath></defs><g clip-path="url(#d3c46cae12)"><path fill="#ffffff" d="M 245.691406 214.148438 L 270.867188 189.144531 C 289.71875 169.875 289.71875 138.570312 270.839844 119.367188 C 262.148438 110.527344 249.667969 105.460938 236.589844 105.460938 C 236.589844 105.460938 236.578125 105.460938 236.578125 105.460938 C 223.511719 105.460938 211.058594 110.539062 202.394531 119.367188 L 190.160156 131.808594 L 190.144531 131.808594 C 190.132812 131.820312 190.132812 131.835938 190.117188 131.847656 L 151.589844 169.75 C 148.75 172.617188 148.75 177.316406 151.628906 180.195312 C 154.332031 182.925781 159.101562 183.007812 162.035156 180.15625 L 186.328125 156.539062 C 187.539062 155.355469 189.34375 155.300781 190.6875 156.226562 L 190.730469 156.171875 C 195.511719 159.457031 201.554688 160.433594 207.707031 158.929688 C 212.242188 157.800781 216.492188 155.4375 219.683594 152.234375 C 221.042969 150.875 223.242188 150.859375 224.597656 152.21875 C 225.957031 153.578125 225.972656 155.777344 224.613281 157.136719 C 220.539062 161.222656 215.132812 164.25 209.363281 165.675781 C 206.902344 166.273438 204.472656 166.574219 202.070312 166.574219 C 201.742188 166.574219 201.429688 166.519531 201.089844 166.507812 L 242.117188 207.722656 C 243.9375 209.570312 245.09375 211.796875 245.691406 214.148438 " fill-opacity="1" fill-rule="nonzero"/></g><g clip-path="url(#28bb63b797)"><path fill="#ffffff" d="M 197.058594 192.28125 L 226.976562 222.214844 C 227.125 222.324219 227.273438 222.445312 227.371094 222.539062 C 229.992188 225.175781 234.554688 225.175781 237.1875 222.539062 C 239.90625 219.808594 239.90625 215.367188 237.1875 212.640625 L 188.71875 163.925781 L 166.882812 185.136719 C 164.113281 187.828125 160.539062 189.308594 156.804688 189.308594 C 153.03125 189.308594 149.347656 187.773438 146.699219 185.097656 C 141.132812 179.515625 141.132812 170.417969 146.699219 164.820312 L 182.769531 129.320312 L 172.992188 119.367188 C 164.300781 110.527344 151.820312 105.449219 138.757812 105.449219 C 138.742188 105.449219 138.742188 105.449219 138.730469 105.449219 C 125.679688 105.460938 113.210938 110.527344 104.53125 119.367188 C 85.617188 138.585938 85.617188 169.886719 104.53125 189.160156 L 182.769531 266.8125 C 185.390625 269.433594 189.96875 269.433594 192.578125 266.8125 C 195.292969 264.054688 195.304688 259.585938 192.578125 256.859375 C 192.578125 256.859375 192.578125 256.84375 192.5625 256.84375 L 162.453125 226.734375 C 161.097656 225.378906 161.097656 223.179688 162.453125 221.820312 C 163.8125 220.460938 166.011719 220.460938 167.371094 221.820312 L 197.4375 251.886719 C 197.546875 251.96875 197.628906 252.050781 197.683594 252.105469 C 200.304688 254.726562 204.878906 254.726562 207.5 252.105469 C 210.191406 249.363281 210.191406 244.894531 207.488281 242.148438 C 207.421875 242.070312 207.378906 241.988281 207.3125 241.90625 L 177.367188 211.960938 C 176.023438 210.601562 176.023438 208.402344 177.367188 207.042969 C 178.722656 205.6875 180.925781 205.6875 182.296875 207.042969 L 212.429688 237.191406 C 212.457031 237.21875 212.472656 237.246094 212.484375 237.273438 C 215.105469 239.867188 219.65625 239.867188 222.277344 237.246094 C 224.992188 234.519531 224.992188 230.078125 222.277344 227.332031 L 192.128906 197.199219 C 190.785156 195.839844 190.785156 193.640625 192.128906 192.28125 C 193.484375 190.925781 195.6875 190.925781 197.058594 192.28125 " fill-opacity="1" fill-rule="nonzero"/></g></svg>